<?xml version="1.0" encoding="UTF-8" standalone="no"?>
<!-- Created with Inkscape (http://www.inkscape.org/) -->

<svg
   xmlns:dc="http://purl.org/dc/elements/1.1/"
   xmlns:cc="http://creativecommons.org/ns#"
   xmlns:rdf="http://www.w3.org/1999/02/22-rdf-syntax-ns#"
   xmlns:svg="http://www.w3.org/2000/svg"
   xmlns="http://www.w3.org/2000/svg"
   xmlns:xlink="http://www.w3.org/1999/xlink"
   xmlns:sodipodi="http://sodipodi.sourceforge.net/DTD/sodipodi-0.dtd"
   xmlns:inkscape="http://www.inkscape.org/namespaces/inkscape"
   width="97.519188mm"
   height="15.697464mm"
   viewBox="0 0 345.54043 55.620935"
   id="svg2"
   version="1.1"
   inkscape:version="0.91 r13725"
   sodipodi:docname="github_code.svg">
  <defs
     id="defs4">
    <linearGradient
       inkscape:collect="always"
       id="linearGradient4264">
      <stop
         style="stop-color:#000000;stop-opacity:1;"
         offset="0"
         id="stop4266" />
      <stop
         style="stop-color:#000000;stop-opacity:0;"
         offset="1"
         id="stop4268" />
    </linearGradient>
    <linearGradient
       inkscape:collect="always"
       xlink:href="#linearGradient4264"
       id="linearGradient4270"
       x1="-1078.6707"
       y1="987.40576"
       x2="-1080.639"
       y2="351.61996"
       gradientUnits="userSpaceOnUse" />
  </defs>
  <sodipodi:namedview
     id="base"
     pagecolor="#ffffff"
     bordercolor="#666666"
     borderopacity="1.0"
     inkscape:pageopacity="0.0"
     inkscape:pageshadow="2"
     inkscape:zoom="1"
     inkscape:cx="109.14528"
     inkscape:cy="27.810468"
     inkscape:document-units="px"
     inkscape:current-layer="layer1"
     showgrid="false"
     inkscape:window-width="1366"
     inkscape:window-height="744"
     inkscape:window-x="0"
     inkscape:window-y="24"
     inkscape:window-maximized="1"
     fit-margin-top="0"
     fit-margin-left="0"
     fit-margin-right="0"
     fit-margin-bottom="0" />
  <metadata
     id="metadata7">
    <rdf:RDF>
      <cc:Work
         rdf:about="">
        <dc:format>image/svg+xml</dc:format>
        <dc:type
           rdf:resource="http://purl.org/dc/dcmitype/StillImage" />
        <dc:title></dc:title>
      </cc:Work>
    </rdf:RDF>
  </metadata>
  <g
     inkscape:label="Layer 1"
     inkscape:groupmode="layer"
     id="layer1"
     transform="translate(1601.1884,-389.8499)">
    <g
       id="g4298"
       transform="matrix(0.19815726,0,0,0.19815726,-1283.9013,358.55713)">
      <rect
         ry="43.861378"
         y="160.54712"
         x="-1598.5602"
         height="275.43439"
         width="1738.5122"
         id="rect4262"
         style="fill:url(#linearGradient4270);fill-opacity:1;stroke:#000000;stroke-width:5.25649214;stroke-linecap:butt;stroke-linejoin:miter;stroke-miterlimit:4;stroke-dasharray:none;stroke-opacity:0.37650607" />
      <g
         transform="translate(393.71964,-3.3005343)"
         id="g4245">
        <path
           inkscape:connector-curvature="0"
           id="path4183"
           style="fill:#161312;fill-opacity:1;fill-rule:nonzero;stroke:none"
           d="m -779.39875,293.03533 -37.83375,0 c -0.97625,0 -1.7675,0.7925 -1.7675,1.77 l 0,18.49625 c 0,0.97625 0.79125,1.77125 1.7675,1.77125 l 14.75875,0 0,22.98125 c 0,0 -3.31375,1.13 -12.47625,1.13 -10.80875,0 -25.90875,-3.95 -25.90875,-37.155 0,-33.21 15.72375,-37.58 30.485,-37.58 12.77875,0 18.2825,2.24875 21.78625,3.3325 1.10125,0.3375 2.11875,-0.7575 2.11875,-1.735 l 4.22,-17.8725 c 0,-0.45625 -0.155,-1.0075 -0.675,-1.38125 -1.4225,-1.01375 -10.10125,-5.87 -32.02625,-5.87 -25.25625,0 -51.165,10.745 -51.165,62.4025 0,51.6575 29.6625,59.355 54.65875,59.355 20.69625,0 33.25125,-8.84375 33.25125,-8.84375 0.5175,-0.28625 0.57375,-1.00875 0.57375,-1.34125 l 0,-57.69 c 0,-0.9775 -0.79125,-1.77 -1.7675,-1.77" />
        <path
           inkscape:connector-curvature="0"
           id="path4185"
           style="fill:#161312;fill-opacity:1;fill-rule:nonzero;stroke:none"
           d="m -584.41875,247.11158 c 0,-0.98375 -0.78,-1.77875 -1.7575,-1.77875 l -21.3025,0 c -0.9725,0 -1.76375,0.795 -1.76375,1.77875 0,0.005 0.006,41.16875 0.006,41.16875 l -33.20625,0 0,-41.16875 c 0,-0.98375 -0.7825,-1.77875 -1.7575,-1.77875 l -21.30125,0 c -0.96875,0 -1.76,0.795 -1.76,1.77875 l 0,111.4725 c 0,0.98375 0.79125,1.78375 1.76,1.78375 l 21.30125,0 c 0.975,0 1.7575,-0.8 1.7575,-1.78375 l 0,-47.68 33.20625,0 c 0,0 -0.0587,47.67625 -0.0587,47.68 0,0.98375 0.79,1.78375 1.765,1.78375 l 21.3525,0 c 0.97625,0 1.75625,-0.8 1.75875,-1.78375 l 0,-111.4725" />
        <path
           inkscape:connector-curvature="0"
           id="path4187"
           style="fill:#161312;fill-opacity:1;fill-rule:nonzero;stroke:none"
           d="m -739.2,261.73908 c 0,-7.67 -6.14875,-13.86875 -13.73625,-13.86875 -7.58,0 -13.735,6.19875 -13.735,13.86875 0,7.66375 6.155,13.87875 13.735,13.87875 7.5875,0 13.73625,-6.215 13.73625,-13.87875" />
        <path
           inkscape:connector-curvature="0"
           id="path4189"
           style="fill:#161312;fill-opacity:1;fill-rule:nonzero;stroke:none"
           d="m -740.7225,335.07033 c 0,-2.8575 0,-51.45625 0,-51.45625 0,-0.9775 -0.78875,-1.77625 -1.7625,-1.77625 l -21.23625,0 c -0.97375,0 -1.845,1.005 -1.845,1.98125 0,0 0,61.91875 0,73.72125 0,2.16625 1.35,2.81125 3.09625,2.81125 0,0 9.065,0 19.1325,0 2.1,0 2.615,-1.03125 2.615,-2.84625 0,-3.95125 0,-19.43125 0,-22.435" />
        <path
           inkscape:connector-curvature="0"
           id="path4191"
           style="fill:#161312;fill-opacity:1;fill-rule:nonzero;stroke:none"
           d="m -503.46,282.00533 -21.13875,0 c -0.96875,0 -1.75875,0.8 -1.75875,1.7825 l 0,54.65875 c 0,0 -5.37125,3.92875 -12.99375,3.92875 -7.62125,0 -9.64375,-3.45875 -9.64375,-10.9225 0,-7.4725 0,-47.665 0,-47.665 0,-0.9825 -0.7875,-1.7825 -1.75875,-1.7825 l -21.455,0 c -0.9675,0 -1.76125,0.8 -1.76125,1.7825 0,0 0,29.1075 0,51.275 0,22.16875 12.355,27.59125 29.35125,27.59125 13.945,0 25.1875,-7.7025 25.1875,-7.7025 0,0 0.535,4.06 0.7775,4.54125 0.24125,0.48 0.8725,0.965 1.555,0.965 l 13.64875,-0.0613 c 0.9675,0 1.76125,-0.8 1.76125,-1.77875 l -0.007,-74.83 c 0,-0.9825 -0.78875,-1.7825 -1.76375,-1.7825" />
        <path
           inkscape:connector-curvature="0"
           id="path4193"
           style="fill:#161312;fill-opacity:1;fill-rule:nonzero;stroke:none"
           d="m -454.02,342.30783 c -7.3325,-0.2225 -12.30625,-3.55 -12.30625,-3.55 l 0,-35.30125 c 0,0 4.90625,-3.0075 10.92625,-3.545 7.6125,-0.68125 14.9475,1.6175 14.9475,19.7775 0,19.14875 -3.31,22.92875 -13.5675,22.61875 z m 8.3375,-62.80625 c -12.00625,0 -20.1725,5.3575 -20.1725,5.3575 l 0,-37.7475 c 0,-0.98375 -0.7875,-1.77875 -1.7575,-1.77875 l -21.36375,0 c -0.97125,0 -1.76,0.795 -1.76,1.77875 l 0,111.4725 c 0,0.98375 0.78875,1.78375 1.7625,1.78375 0.002,0 14.8175,0 14.8225,0 0.6675,0 1.1725,-0.34375 1.54625,-0.94625 0.36875,-0.6 0.9,-5.14 0.9,-5.14 0,0 8.735,8.2775 25.27125,8.2775 19.415,0 30.54875,-9.84625 30.54875,-44.20625 0,-34.36125 -17.7825,-38.85125 -29.7975,-38.85125" />
        <path
           inkscape:connector-curvature="0"
           id="path4195"
           style="fill:#161312;fill-opacity:1;fill-rule:nonzero;stroke:none"
           d="m -679.4975,281.82783 -15.98,0 c 0,0 -0.0238,-21.10625 -0.0238,-21.11 0,-0.8 -0.4125,-1.19875 -1.33625,-1.19875 l -21.775,0 c -0.8475,0 -1.30125,0.3725 -1.30125,1.18625 l 0,21.815 c 0,0 -10.9125,2.63375 -11.65125,2.8475 -0.73375,0.2125 -1.275,0.89 -1.275,1.69875 l 0,13.70875 c 0,0.98625 0.7875,1.78125 1.76125,1.78125 l 11.165,0 c 0,0 0,14.33875 0,32.98 0,24.49625 17.1825,26.9025 28.77625,26.9025 5.29875,0 11.63625,-1.70125 12.6825,-2.0875 0.6325,-0.2325 1,-0.88875 1,-1.59875 l 0.0188,-15.08125 c 0,-0.9825 -0.83125,-1.77875 -1.76625,-1.77875 -0.9325,0 -3.31375,0.37875 -5.76625,0.37875 -7.85,0 -10.50875,-3.64875 -10.50875,-8.37375 0,-4.72 -0.001,-31.34125 -0.001,-31.34125 l 15.98125,0 c 0.97375,0 1.7625,-0.795 1.7625,-1.78125 l 0,-17.17125 c 0,-0.98375 -0.78875,-1.77625 -1.7625,-1.77625" />
      </g>
      <text
         sodipodi:linespacing="125%"
         id="text4254"
         y="356.12961"
         x="-1461.5902"
         style="font-style:normal;font-variant:normal;font-weight:normal;font-stretch:normal;font-size:141.3125px;line-height:125%;font-family:FreeSans;-inkscape-font-specification:'FreeSans, Normal';text-align:start;letter-spacing:0px;word-spacing:0px;writing-mode:lr-tb;text-anchor:start;fill:#000000;fill-opacity:1;stroke:none;stroke-width:1px;stroke-linecap:butt;stroke-linejoin:miter;stroke-opacity:1"
         xml:space="preserve"><tspan
           y="356.12961"
           x="-1461.5902"
           id="tspan4256"
           sodipodi:role="line">Download from</tspan></text>
    </g>
  </g>
</svg>
